<svg id="Capa_1" data-name="Capa 1" xmlns="http://www.w3.org/2000/svg" xmlns:xlink="http://www.w3.org/1999/xlink" viewBox="0 0 406 118"><defs><style>.cls-1{fill:none;stroke-linecap:round;stroke-linejoin:round;stroke-width:6px;stroke:url(#Degradado_sin_nombre_5);}.cls-2{fill:#363e41;}</style><linearGradient id="Degradado_sin_nombre_5" x1="2.03" y1="60.37" x2="91.73" y2="60.37" gradientUnits="userSpaceOnUse"><stop offset="0" stop-color="#ff4b11"/><stop offset="1" stop-color="#b60065"/></linearGradient></defs><polygon class="cls-1" points="51.53 13.87 5.03 69.67 46.88 69.67 42.23 106.87 88.73 51.07 46.88 51.07 51.53 13.87"/><path class="cls-2" d="M104.41,75.24l1.15-7H115l5.12-32.61h-9.34l1.09-7h26.85l-1.15,7h-9.4L123,68.21h9.33l-1.08,7Z"/><path class="cls-2" d="M141.94,75.24l5.57-35.17h7.8l-1.09,6.72a10.55,10.55,0,0,1,4-5.37,11.39,11.39,0,0,1,6.72-2q5.17,0,7.73,3.45t1.6,9.27l-3.64,23.08h-8l3.51-22.12q.51-3.27-.89-5a5.18,5.18,0,0,0-4.29-1.76,7.16,7.16,0,0,0-5,1.79,8.55,8.55,0,0,0-2.56,5.12l-3.45,22Z"/><path class="cls-2" d="M193,75.81q-6.27,0-9.5-2.84t-2.46-7.7h7.87a3.1,3.1,0,0,0,1,3.13,6.33,6.33,0,0,0,4,1.09h2.81a8.58,8.58,0,0,0,4.6-1.12,4.33,4.33,0,0,0,2.11-3.1,3.07,3.07,0,0,0-.63-2.85,5.79,5.79,0,0,0-3.2-1.25L191.17,60a8.24,8.24,0,0,1-6-3.26,9.46,9.46,0,0,1-1.21-7,11.16,11.16,0,0,1,4.54-7.67q3.7-2.62,10-2.62h2.94q5.82,0,9,2.75a7.49,7.49,0,0,1,2.62,7.1h-7.92a2.8,2.8,0,0,0-1.06-2.66,5.71,5.71,0,0,0-3.61-1h-2.94a6.88,6.88,0,0,0-4.06,1.06,4.25,4.25,0,0,0-1.82,2.84,2.38,2.38,0,0,0,.64,2.37,5,5,0,0,0,2.74,1l8.06,1.15q4.8.57,6.81,3.42t1.25,7.64q-1.73,10.68-15.35,10.67Z"/><path class="cls-2" d="M236.44,75.24q-4.92,0-7.35-2.85c-1.62-1.89-2.18-4.46-1.66-7.7l2.74-17.39h-9.71l1.08-7.23h9.72l1.6-9.91h8.06l-1.6,9.91h14l-1.15,7.23h-14l-2.75,17.2A3.19,3.19,0,0,0,235.9,67a2.56,2.56,0,0,0,2.2,1h10.42l-1.08,7.23Z"/><path class="cls-2" d="M256.84,75.24,258,68h12.27l3.33-20.65H262.85L264,40.07h18.28L277.93,68H288.8l-1.15,7.29Zm22.12-41A4.89,4.89,0,0,1,275.31,33a3.76,3.76,0,0,1-.89-3.36,5,5,0,0,1,1.95-3.36A6.5,6.5,0,0,1,280.43,25,4.76,4.76,0,0,1,284,26.23a3.77,3.77,0,0,1,.86,3.36A5.07,5.07,0,0,1,283,33,6.37,6.37,0,0,1,279,34.19Z"/><path class="cls-2" d="M295.39,75.24,301,40.07h7.8l-1.08,6.72a10.44,10.44,0,0,1,4-5.37,11.34,11.34,0,0,1,6.71-2q5.18,0,7.74,3.45t1.6,9.27L324,75.24h-8l3.52-22.12q.51-3.27-.9-5a5.16,5.16,0,0,0-4.28-1.76,7.17,7.17,0,0,0-5,1.79,8.66,8.66,0,0,0-2.56,5.12l-3.45,22Z"/><path class="cls-2" d="M351.52,75.24q-4.92,0-7.35-2.85t-1.66-7.7l2.75-17.39h-9.72l1.09-7.23h9.72l1.59-9.91H356l-1.6,9.91h14l-1.15,7.23h-14L350.5,64.5A3.19,3.19,0,0,0,351,67a2.58,2.58,0,0,0,2.21,1h10.42l-1.09,7.23Z"/><path class="cls-2" d="M386.24,75.88a14.66,14.66,0,0,1-7.41-1.73,9.86,9.86,0,0,1-4.32-4.82,13.25,13.25,0,0,1-.67-7.26l1.41-8.82a15.74,15.74,0,0,1,5.43-10.2q4.41-3.61,11.38-3.61a14.73,14.73,0,0,1,7.42,1.72A10,10,0,0,1,403.82,46a12.44,12.44,0,0,1,.64,7.19l-1.4,8.89a16.09,16.09,0,0,1-5.47,10.2Q393.21,75.87,386.24,75.88Zm1.15-7a7.55,7.55,0,0,0,5.15-1.76,8.09,8.09,0,0,0,2.52-5.08l1.41-8.82q.51-3.33-.93-5.09t-4.63-1.76a7.55,7.55,0,0,0-5.15,1.76,8.12,8.12,0,0,0-2.52,5.09l-1.41,8.82q-.51,3.33.93,5.08T387.39,68.91Z"/></svg>