<?xml version="1.0" standalone="no"?>
<!DOCTYPE svg PUBLIC "-//W3C//DTD SVG 20010904//EN"
 "http://www.w3.org/TR/2001/REC-SVG-20010904/DTD/svg10.dtd">
<svg version="1.0" xmlns="http://www.w3.org/2000/svg"
 width="700.000000pt" height="700.000000pt" viewBox="0 0 700.000000 700.000000"
 preserveAspectRatio="xMidYMid meet">
<metadata>
Created by potrace 1.14, written by Peter Selinger 2001-2017
</metadata>
<g transform="translate(0.000000,700.000000) scale(0.100000,-0.100000)"
fill="#000000" stroke="none">
<path d="M3754 6944 c-25 -13 -53 -29 -62 -36 -8 -7 -126 -146 -261 -308 -135
-162 -253 -304 -263 -315 -9 -11 -123 -148 -254 -305 -294 -353 -305 -366
-328 -393 -10 -12 -35 -42 -55 -67 -20 -25 -48 -58 -62 -75 -15 -16 -189 -226
-389 -465 -199 -239 -369 -444 -378 -455 -10 -11 -85 -101 -167 -200 -82 -99
-152 -182 -155 -185 -3 -3 -23 -27 -45 -55 -21 -27 -42 -52 -45 -55 -5 -4
-698 -835 -770 -923 -8 -11 -27 -33 -43 -50 -65 -75 -92 -192 -65 -280 17 -57
78 -127 138 -161 l55 -31 960 -2 c528 -2 1121 -3 1318 -3 197 0 356 -3 354 -7
-3 -5 -8 -35 -12 -68 -7 -64 -10 -93 -20 -165 -3 -25 -7 -63 -10 -85 -3 -22
-7 -56 -10 -75 -3 -19 -8 -55 -10 -80 -5 -45 -9 -78 -19 -155 -3 -22 -15 -114
-26 -205 -26 -220 -29 -243 -41 -325 -5 -38 -12 -92 -15 -120 -3 -27 -7 -61
-9 -75 -2 -14 -7 -52 -10 -85 -4 -33 -8 -67 -10 -75 -3 -8 -7 -42 -10 -76 -3
-33 -7 -69 -9 -80 -2 -10 -7 -48 -11 -84 -4 -36 -9 -73 -10 -82 -2 -9 -7 -43
-10 -75 -4 -32 -8 -69 -10 -83 -2 -14 -6 -54 -10 -90 -4 -36 -11 -86 -15 -112
-22 -142 33 -260 147 -318 61 -32 187 -35 244 -7 55 27 89 63 299 317 107 129
197 237 200 240 3 3 35 41 70 85 36 44 72 87 80 95 8 8 33 38 55 65 21 28 42
52 45 55 3 3 25 30 50 60 56 68 82 99 95 114 6 6 53 63 105 126 117 141 83
101 350 420 21 25 66 79 100 120 34 41 71 86 83 100 13 14 65 77 117 140 52
63 97 117 100 120 3 3 82 97 175 210 94 113 180 216 192 230 18 21 217 261
331 399 21 25 42 49 47 55 6 6 53 63 105 126 52 63 103 124 112 135 9 11 58
70 108 130 50 61 101 121 114 135 12 14 53 63 91 110 38 47 72 87 75 90 37 35
207 252 226 288 69 135 6 309 -136 376 -48 22 49 22 -2583 26 l-89 0 6 38 c3
20 8 57 11 82 6 55 14 113 21 160 2 19 7 55 9 79 2 24 7 60 9 80 6 38 24 180
32 246 2 22 7 56 9 75 3 19 7 58 10 85 3 28 7 61 10 75 2 14 7 50 10 80 3 30
8 66 10 80 4 23 14 100 20 160 5 42 15 121 25 201 6 41 12 95 15 119 2 23 7
59 9 79 8 51 34 266 42 331 3 30 12 93 19 140 27 190 11 280 -67 359 -78 80
-217 104 -314 55z m-277 -1181 c-3 -5 -8 -33 -11 -63 -9 -72 -16 -129 -21
-160 -2 -14 -7 -47 -10 -75 -3 -27 -7 -66 -10 -85 -2 -19 -9 -75 -15 -125 -6
-49 -13 -103 -15 -120 -2 -16 -7 -52 -10 -80 -4 -27 -8 -60 -10 -73 -1 -12 -6
-50 -10 -85 -3 -34 -8 -73 -10 -87 -7 -43 -14 -102 -25 -195 -6 -49 -13 -103
-15 -120 -49 -351 -50 -399 -11 -478 33 -67 86 -116 154 -140 47 -17 117 -18
1206 -18 636 1 1156 -2 1156 -5 0 -3 -21 -31 -47 -62 -27 -31 -56 -65 -65 -77
-20 -24 -334 -401 -387 -465 -21 -25 -66 -79 -100 -120 -34 -41 -70 -84 -79
-95 -9 -11 -37 -45 -62 -75 -25 -30 -50 -60 -55 -66 -6 -6 -27 -31 -46 -54
-18 -23 -39 -47 -44 -54 -6 -6 -190 -227 -410 -491 -220 -264 -408 -489 -417
-500 -9 -11 -69 -83 -133 -160 -64 -77 -124 -149 -133 -160 -10 -11 -59 -71
-111 -133 -52 -61 -96 -112 -98 -112 -3 0 -2 12 1 27 3 16 8 53 11 83 4 30 8
66 10 80 2 14 7 50 10 80 3 30 8 67 11 82 2 15 6 49 9 75 3 27 7 65 10 86 5
36 10 74 20 155 2 20 7 56 10 80 3 23 7 59 9 80 10 83 18 148 21 162 2 8 6 44
10 80 4 36 8 72 10 80 1 8 6 44 10 80 4 36 9 72 10 80 2 8 6 44 10 80 4 36 9
74 11 85 2 11 7 59 10 106 11 146 -37 242 -150 302 l-41 22 -1177 5 -1176 5
170 205 c93 113 183 220 199 239 16 19 44 53 62 75 40 49 202 244 225 271 10
11 38 45 62 75 25 30 57 68 71 85 15 16 77 91 138 165 62 74 120 144 129 155
10 11 74 88 142 170 69 83 127 152 130 155 3 3 37 43 75 90 38 47 72 87 75 90
7 7 56 65 105 125 22 27 87 106 145 175 58 69 123 148 145 175 22 26 45 53 50
59 6 6 32 38 60 71 27 33 52 62 55 65 4 3 13 14 21 26 14 21 94 116 117 140
14 15 26 19 19 7z"/>
</g>
</svg>
